<?xml version="1.0" encoding="UTF-8" standalone="no"?><svg xmlns="http://www.w3.org/2000/svg" xmlns:xlink="http://www.w3.org/1999/xlink" contentStyleType="text/css" height="311px" preserveAspectRatio="none" style="width:589px;height:311px;background:#282828;" version="1.1" viewBox="0 0 589 311" width="589px" zoomAndPan="magnify"><defs/><g><!--MD5=[bb06d530b8fae1d95ccdee3922259c44]
cluster jmacro--><g id="cluster_jmacro"><path d="M13.5,12.1191 L100.5,12.1191 A3.75,3.75 0 0 1 103,14.6191 L110,44.8564 L579.5,44.8564 A2.5,2.5 0 0 1 582,47.3564 L582,301.6191 A2.5,2.5 0 0 1 579.5,304.1191 L13.5,304.1191 A2.5,2.5 0 0 1 11,301.6191 L11,14.6191 A2.5,2.5 0 0 1 13.5,12.1191 " fill="#282828" style="stroke:#33FF33;stroke-width:1.0;"/><line style="stroke:#33FF33;stroke-width:1.0;" x1="11" x2="110" y1="44.8564" y2="44.8564"/><text fill="#33FF33" font-family="Verdana" font-size="22" font-weight="bold" lengthAdjust="spacing" textLength="86" x="15" y="36.2373">jmacro</text></g><!--MD5=[82e865073170c2da8a76a939041dabe8]
cluster commands--><g id="cluster_commands"><path d="M207.5,65.1191 L341.5,65.1191 A3.75,3.75 0 0 1 344,67.6191 L351,97.8564 L555.5,97.8564 A2.5,2.5 0 0 1 558,100.3564 L558,277.6191 A2.5,2.5 0 0 1 555.5,280.1191 L207.5,280.1191 A2.5,2.5 0 0 1 205,277.6191 L205,67.6191 A2.5,2.5 0 0 1 207.5,65.1191 " fill="#282828" style="stroke:#33FF33;stroke-width:1.0;"/><line style="stroke:#33FF33;stroke-width:1.0;" x1="205" x2="351" y1="97.8564" y2="97.8564"/><text fill="#33FF33" font-family="Verdana" font-size="22" font-weight="bold" lengthAdjust="spacing" textLength="133" x="209" y="89.2373">commands</text></g><!--MD5=[c251b62818238b6f79269adc5bf7d1e2]
entity cli--><g id="elem_cli"><rect fill="#282828" height="47.0146" rx="2.5" ry="2.5" style="stroke:#33FF33;stroke-width:1.0;" width="53" x="27.5" y="110.1191"/><rect fill="#282828" height="10" style="stroke:#33FF33;stroke-width:1.0;" width="15" x="60.5" y="115.1191"/><rect fill="#282828" height="2" style="stroke:#33FF33;stroke-width:1.0;" width="4" x="58.5" y="117.1191"/><rect fill="#282828" height="2" style="stroke:#33FF33;stroke-width:1.0;" width="4" x="58.5" y="121.1191"/><text fill="#33FF33" font-family="Verdana" font-size="14" lengthAdjust="spacing" textLength="13" x="42.5" y="144.1943">cli</text></g><!--MD5=[0d482ad21d5c7c11aa976e45da5ecfe6]
entity core--><g id="elem_core"><rect fill="#282828" height="47.0146" rx="2.5" ry="2.5" style="stroke:#33FF33;stroke-width:1.0;" width="70" x="116" y="110.1191"/><rect fill="#282828" height="10" style="stroke:#33FF33;stroke-width:1.0;" width="15" x="166" y="115.1191"/><rect fill="#282828" height="2" style="stroke:#33FF33;stroke-width:1.0;" width="4" x="164" y="117.1191"/><rect fill="#282828" height="2" style="stroke:#33FF33;stroke-width:1.0;" width="4" x="164" y="121.1191"/><text fill="#33FF33" font-family="Verdana" font-size="14" lengthAdjust="spacing" textLength="30" x="131" y="144.1943">core</text></g><!--MD5=[cfa4e52b1a5e747220fbc0f640efedd4]
entity installer--><g id="elem_installer"><rect fill="#282828" height="47.0146" rx="2.5" ry="2.5" style="stroke:#33FF33;stroke-width:1.0;" width="94" x="27" y="217.1191"/><rect fill="#282828" height="10" style="stroke:#33FF33;stroke-width:1.0;" width="15" x="101" y="222.1191"/><rect fill="#282828" height="2" style="stroke:#33FF33;stroke-width:1.0;" width="4" x="99" y="224.1191"/><rect fill="#282828" height="2" style="stroke:#33FF33;stroke-width:1.0;" width="4" x="99" y="228.1191"/><text fill="#33FF33" font-family="Verdana" font-size="14" lengthAdjust="spacing" textLength="54" x="42" y="251.1943">installer</text></g><!--MD5=[21ab09ffd5d05f413c587b952aee3778]
entity base--><g id="elem_base"><rect fill="#282828" height="47.0146" rx="2.5" ry="2.5" style="stroke:#33FF33;stroke-width:1.0;" width="73" x="221.5" y="110.1191"/><rect fill="#282828" height="10" style="stroke:#33FF33;stroke-width:1.0;" width="15" x="274.5" y="115.1191"/><rect fill="#282828" height="2" style="stroke:#33FF33;stroke-width:1.0;" width="4" x="272.5" y="117.1191"/><rect fill="#282828" height="2" style="stroke:#33FF33;stroke-width:1.0;" width="4" x="272.5" y="121.1191"/><text fill="#33FF33" font-family="Verdana" font-size="14" lengthAdjust="spacing" textLength="33" x="236.5" y="144.1943">base</text></g><!--MD5=[23555a4f9c8a267cdfd801ad53ceaf15]
entity browser--><g id="elem_browser"><rect fill="#282828" height="47.0146" rx="2.5" ry="2.5" style="stroke:#33FF33;stroke-width:1.0;" width="97" x="329.5" y="110.1191"/><rect fill="#282828" height="10" style="stroke:#33FF33;stroke-width:1.0;" width="15" x="406.5" y="115.1191"/><rect fill="#282828" height="2" style="stroke:#33FF33;stroke-width:1.0;" width="4" x="404.5" y="117.1191"/><rect fill="#282828" height="2" style="stroke:#33FF33;stroke-width:1.0;" width="4" x="404.5" y="121.1191"/><text fill="#33FF33" font-family="Verdana" font-size="14" lengthAdjust="spacing" textLength="57" x="344.5" y="144.1943">browser</text></g><!--MD5=[1375add757115ee39f7ff3766c923b13]
entity datax--><g id="elem_datax"><rect fill="#282828" height="47.0146" rx="2.5" ry="2.5" style="stroke:#33FF33;stroke-width:1.0;" width="80" x="462" y="110.1191"/><rect fill="#282828" height="10" style="stroke:#33FF33;stroke-width:1.0;" width="15" x="522" y="115.1191"/><rect fill="#282828" height="2" style="stroke:#33FF33;stroke-width:1.0;" width="4" x="520" y="117.1191"/><rect fill="#282828" height="2" style="stroke:#33FF33;stroke-width:1.0;" width="4" x="520" y="121.1191"/><text fill="#33FF33" font-family="Verdana" font-size="14" lengthAdjust="spacing" textLength="40" x="477" y="144.1943">datax</text></g><!--MD5=[16c31a0976e7ee3a54f1b2402d7e20e4]
entity io--><g id="elem_io"><rect fill="#282828" height="47.0146" rx="2.5" ry="2.5" style="stroke:#33FF33;stroke-width:1.0;" width="52" x="232" y="217.1191"/><rect fill="#282828" height="10" style="stroke:#33FF33;stroke-width:1.0;" width="15" x="264" y="222.1191"/><rect fill="#282828" height="2" style="stroke:#33FF33;stroke-width:1.0;" width="4" x="262" y="224.1191"/><rect fill="#282828" height="2" style="stroke:#33FF33;stroke-width:1.0;" width="4" x="262" y="228.1191"/><text fill="#33FF33" font-family="Verdana" font-size="14" lengthAdjust="spacing" textLength="12" x="247" y="251.1943">io</text></g><!--MD5=[dd82451e1dd92fe3da01853750f49ff6]
entity server--><g id="elem_server"><rect fill="#282828" height="47.0146" rx="2.5" ry="2.5" style="stroke:#33FF33;stroke-width:1.0;" width="84" x="319" y="217.1191"/><rect fill="#282828" height="10" style="stroke:#33FF33;stroke-width:1.0;" width="15" x="383" y="222.1191"/><rect fill="#282828" height="2" style="stroke:#33FF33;stroke-width:1.0;" width="4" x="381" y="224.1191"/><rect fill="#282828" height="2" style="stroke:#33FF33;stroke-width:1.0;" width="4" x="381" y="228.1191"/><text fill="#33FF33" font-family="Verdana" font-size="14" lengthAdjust="spacing" textLength="44" x="334" y="251.1943">server</text></g><!--MD5=[6233c2b59d1fcbdfea6203d4b6c22fce]
entity terminal--><g id="elem_terminal"><rect fill="#282828" height="47.0146" rx="2.5" ry="2.5" style="stroke:#33FF33;stroke-width:1.0;" width="96" x="438" y="217.1191"/><rect fill="#282828" height="10" style="stroke:#33FF33;stroke-width:1.0;" width="15" x="514" y="222.1191"/><rect fill="#282828" height="2" style="stroke:#33FF33;stroke-width:1.0;" width="4" x="512" y="224.1191"/><rect fill="#282828" height="2" style="stroke:#33FF33;stroke-width:1.0;" width="4" x="512" y="228.1191"/><text fill="#33FF33" font-family="Verdana" font-size="14" lengthAdjust="spacing" textLength="56" x="453" y="251.1943">terminal</text></g><!--MD5=[c343523bb6236311a6fb295686933428]
@startuml
!theme crt-green
package jmacro{
    [cli]
    package commands{
        [base]
        [browser]
        [datax]
        [io]
        [server]
        [terminal]
    }
    [core]
    [installer]
}
@enduml

@startuml





<style>
  root {
    BackgroundColor #282828
    FontColor #33FF33
    FontName Verdana
    HyperLinkColor #33FF33
    LineColor #33FF33
    LineThickness 1
    Margin 5
  }
  box {
    LineStyle 12-18
    LineThickness 3
  }
  caption {
    LineThickness 0
  }
  footer {
    LineThickness 0
  }
  groupHeader {
    BackgroundColor #33FF33
    FontColor #282828
    FontStyle bold
  }
  header {
    LineThickness 0
  }
  node {
    MaximumWidth 300
  }
  referenceHeader {
    BackgroundColor #33FF33
    FontColor #282828
    FontStyle bold
  }
  separator {
    BackgroundColor #33FF33
    FontColor #282828
    FontStyle bold
  }
  title {
    FontSize 22
    LineThickness 0
  }
</style>

skinparam ArrowLollipopColor #33FF33
skinparam BackgroundColor #282828
skinparam DefaultFontName Verdana
skinparam DefaultMonospacedFontName Courier
skinparam LifelineStrategy solid
skinparam ParticipantPadding 10
skinparam SequenceLifeLineBorderColor #33FF33
skinparam Shadowing false
skinparam UseBetaStyle true

skinparam Activity {
  BackgroundColor #282828
  BarColor #33FF33
  BorderColor #33FF33
  FontColor #33FF33
  FontName Verdana
}
skinparam Boundary {
  FontColor #33FF33
}
skinparam Box {
  Padding 5
}
skinparam CircledCharacter {
  FontColor #282828
  FontName Courier
  Radius 9
}
skinparam Class {
  BackgroundColor #282828
  BorderColor #33FF33
  FontColor #33FF33
  FontName Verdana
}
skinparam ClassAttribute {
  FontColor #33FF33
  FontName Verdana
}
skinparam ClassStereotype {
  FontColor #33FF33
  FontName Verdana
}
skinparam Footer {
  FontColor #33FF33
  FontName Verdana
}
skinparam Header {
  FontColor #33FF33
  FontName Verdana
}
skinparam Hyperlink {
  Color #33FF33
}
skinparam IconPackage {
  Color #33FF33
  BackgroundColor #282828
}
skinparam IconPrivate {
  Color #33FF33
  BackgroundColor #282828
}
skinparam IconProtected {
  Color #33FF33
  BackgroundColor #282828
}
skinparam IconPublic {
  Color #33FF33
  BackgroundColor #282828
}
skinparam Note {
  FontColor #33FF33
  FontName Verdana
}
skinparam Object {
  BorderColor #33FF33
}
skinparam Package {
  BorderColor #33FF33
  FontColor #33FF33
  FontName Verdana
}
skinparam State {
  BackgroundColor #282828
  BorderColor #33FF33
}
skinparam StereotypeA {
  BackgroundColor #33FF33
  BorderColor #33FF33
}
skinparam StereotypeC {
  BackgroundColor #33FF33
  BorderColor #33FF33
}
skinparam StereotypeE {
  BackgroundColor #33FF33
  BorderColor #33FF33
}
skinparam StereotypeI {
  BackgroundColor #33FF33
  BorderColor #33FF33
}
skinparam StereotypeN {
  BackgroundColor #33FF33
  BorderColor #33FF33
}
skinparam UseCaseStereoType {
  FontColor #33FF33
  FontName Verdana
}
package jmacro{
    [cli]
    package commands{
        [base]
        [browser]
        [datax]
        [io]
        [server]
        [terminal]
    }
    [core]
    [installer]
}
@enduml

PlantUML version 1.2022.6(Tue Jun 21 14:34:49 BRT 2022)
(GPL source distribution)
Java Runtime: OpenJDK Runtime Environment
JVM: OpenJDK 64-Bit Server VM
Default Encoding: UTF-8
Language: pt
Country: BR
--></g></svg>