<?xml version="1.0" encoding="us-ascii" standalone="no"?><svg xmlns="http://www.w3.org/2000/svg" xmlns:xlink="http://www.w3.org/1999/xlink" contentStyleType="text/css" height="399px" preserveAspectRatio="none" style="width:589px;height:399px;background:#282828;" version="1.1" viewBox="0 0 589 399" width="589px" zoomAndPan="magnify"><defs/><g><rect fill="#282828" height="399" style="stroke:none;stroke-width:1.0;" width="589" x="0" y="0"/><!--cluster jmacro--><g id="cluster_jmacro"><path d="M13.5,11 L68.5,11 A3.75,3.75 0 0 1 71,13.5 L78,34.0146 L579.5,34.0146 A2.5,2.5 0 0 1 582,36.5146 L582,389.5 A2.5,2.5 0 0 1 579.5,392 L13.5,392 A2.5,2.5 0 0 1 11,389.5 L11,13.5 A2.5,2.5 0 0 1 13.5,11 " fill="#282828" style="stroke:#33FF33;stroke-width:1.0;"/><line style="stroke:#33FF33;stroke-width:1.0;" x1="11" x2="78" y1="34.0146" y2="34.0146"/><text fill="#33FF33" font-family="Verdana" font-size="14" font-weight="bold" lengthAdjust="spacing" textLength="54" x="15" y="27.0752">jmacro</text></g><!--cluster commands--><g id="cluster_commands"><path d="M207.5,55 L291.5,55 A3.75,3.75 0 0 1 294,57.5 L301,78.0146 L555.5,78.0146 A2.5,2.5 0 0 1 558,80.5146 L558,365.5 A2.5,2.5 0 0 1 555.5,368 L207.5,368 A2.5,2.5 0 0 1 205,365.5 L205,57.5 A2.5,2.5 0 0 1 207.5,55 " fill="#282828" style="stroke:#33FF33;stroke-width:1.0;"/><line style="stroke:#33FF33;stroke-width:1.0;" x1="205" x2="301" y1="78.0146" y2="78.0146"/><text fill="#33FF33" font-family="Verdana" font-size="14" font-weight="bold" lengthAdjust="spacing" textLength="83" x="209" y="71.0752">commands</text></g><!--entity cli--><g id="elem_cli"><rect fill="#282828" height="47.0146" rx="2.5" ry="2.5" style="stroke:#33FF33;stroke-width:1.0;" width="53" x="27.5" y="91"/><rect fill="#282828" height="10" style="stroke:#33FF33;stroke-width:1.0;" width="15" x="60.5" y="96"/><rect fill="#282828" height="2" style="stroke:#33FF33;stroke-width:1.0;" width="4" x="58.5" y="98"/><rect fill="#282828" height="2" style="stroke:#33FF33;stroke-width:1.0;" width="4" x="58.5" y="102"/><text fill="#33FF33" font-family="Verdana" font-size="14" lengthAdjust="spacing" textLength="13" x="42.5" y="125.0752">cli</text></g><!--entity core--><g id="elem_core"><rect fill="#282828" height="47.0146" rx="2.5" ry="2.5" style="stroke:#33FF33;stroke-width:1.0;" width="70" x="116" y="91"/><rect fill="#282828" height="10" style="stroke:#33FF33;stroke-width:1.0;" width="15" x="166" y="96"/><rect fill="#282828" height="2" style="stroke:#33FF33;stroke-width:1.0;" width="4" x="164" y="98"/><rect fill="#282828" height="2" style="stroke:#33FF33;stroke-width:1.0;" width="4" x="164" y="102"/><text fill="#33FF33" font-family="Verdana" font-size="14" lengthAdjust="spacing" textLength="30" x="131" y="125.0752">core</text></g><!--entity installer--><g id="elem_installer"><rect fill="#282828" height="47.0146" rx="2.5" ry="2.5" style="stroke:#33FF33;stroke-width:1.0;" width="94" x="27" y="198"/><rect fill="#282828" height="10" style="stroke:#33FF33;stroke-width:1.0;" width="15" x="101" y="203"/><rect fill="#282828" height="2" style="stroke:#33FF33;stroke-width:1.0;" width="4" x="99" y="205"/><rect fill="#282828" height="2" style="stroke:#33FF33;stroke-width:1.0;" width="4" x="99" y="209"/><text fill="#33FF33" font-family="Verdana" font-size="14" lengthAdjust="spacing" textLength="54" x="42" y="232.0752">installer</text></g><!--entity base--><g id="elem_base"><rect fill="#282828" height="47.0146" rx="2.5" ry="2.5" style="stroke:#33FF33;stroke-width:1.0;" width="73" x="221.5" y="91"/><rect fill="#282828" height="10" style="stroke:#33FF33;stroke-width:1.0;" width="15" x="274.5" y="96"/><rect fill="#282828" height="2" style="stroke:#33FF33;stroke-width:1.0;" width="4" x="272.5" y="98"/><rect fill="#282828" height="2" style="stroke:#33FF33;stroke-width:1.0;" width="4" x="272.5" y="102"/><text fill="#33FF33" font-family="Verdana" font-size="14" lengthAdjust="spacing" textLength="33" x="236.5" y="125.0752">base</text></g><!--entity browser--><g id="elem_browser"><rect fill="#282828" height="47.0146" rx="2.5" ry="2.5" style="stroke:#33FF33;stroke-width:1.0;" width="97" x="329.5" y="91"/><rect fill="#282828" height="10" style="stroke:#33FF33;stroke-width:1.0;" width="15" x="406.5" y="96"/><rect fill="#282828" height="2" style="stroke:#33FF33;stroke-width:1.0;" width="4" x="404.5" y="98"/><rect fill="#282828" height="2" style="stroke:#33FF33;stroke-width:1.0;" width="4" x="404.5" y="102"/><text fill="#33FF33" font-family="Verdana" font-size="14" lengthAdjust="spacing" textLength="57" x="344.5" y="125.0752">browser</text></g><!--entity datax--><g id="elem_datax"><rect fill="#282828" height="47.0146" rx="2.5" ry="2.5" style="stroke:#33FF33;stroke-width:1.0;" width="80" x="462" y="91"/><rect fill="#282828" height="10" style="stroke:#33FF33;stroke-width:1.0;" width="15" x="522" y="96"/><rect fill="#282828" height="2" style="stroke:#33FF33;stroke-width:1.0;" width="4" x="520" y="98"/><rect fill="#282828" height="2" style="stroke:#33FF33;stroke-width:1.0;" width="4" x="520" y="102"/><text fill="#33FF33" font-family="Verdana" font-size="14" lengthAdjust="spacing" textLength="40" x="477" y="125.0752">datax</text></g><!--entity db--><g id="elem_db"><rect fill="#282828" height="47.0146" rx="2.5" ry="2.5" style="stroke:#33FF33;stroke-width:1.0;" width="58" x="234" y="198"/><rect fill="#282828" height="10" style="stroke:#33FF33;stroke-width:1.0;" width="15" x="272" y="203"/><rect fill="#282828" height="2" style="stroke:#33FF33;stroke-width:1.0;" width="4" x="270" y="205"/><rect fill="#282828" height="2" style="stroke:#33FF33;stroke-width:1.0;" width="4" x="270" y="209"/><text fill="#33FF33" font-family="Verdana" font-size="14" lengthAdjust="spacing" textLength="18" x="249" y="232.0752">db</text></g><!--entity io--><g id="elem_io"><rect fill="#282828" height="47.0146" rx="2.5" ry="2.5" style="stroke:#33FF33;stroke-width:1.0;" width="52" x="327" y="198"/><rect fill="#282828" height="10" style="stroke:#33FF33;stroke-width:1.0;" width="15" x="359" y="203"/><rect fill="#282828" height="2" style="stroke:#33FF33;stroke-width:1.0;" width="4" x="357" y="205"/><rect fill="#282828" height="2" style="stroke:#33FF33;stroke-width:1.0;" width="4" x="357" y="209"/><text fill="#33FF33" font-family="Verdana" font-size="14" lengthAdjust="spacing" textLength="12" x="342" y="232.0752">io</text></g><!--entity server--><g id="elem_server"><rect fill="#282828" height="47.0146" rx="2.5" ry="2.5" style="stroke:#33FF33;stroke-width:1.0;" width="84" x="414" y="198"/><rect fill="#282828" height="10" style="stroke:#33FF33;stroke-width:1.0;" width="15" x="478" y="203"/><rect fill="#282828" height="2" style="stroke:#33FF33;stroke-width:1.0;" width="4" x="476" y="205"/><rect fill="#282828" height="2" style="stroke:#33FF33;stroke-width:1.0;" width="4" x="476" y="209"/><text fill="#33FF33" font-family="Verdana" font-size="14" lengthAdjust="spacing" textLength="44" x="429" y="232.0752">server</text></g><!--entity terminal--><g id="elem_terminal"><rect fill="#282828" height="47.0146" rx="2.5" ry="2.5" style="stroke:#33FF33;stroke-width:1.0;" width="96" x="221" y="305"/><rect fill="#282828" height="10" style="stroke:#33FF33;stroke-width:1.0;" width="15" x="297" y="310"/><rect fill="#282828" height="2" style="stroke:#33FF33;stroke-width:1.0;" width="4" x="295" y="312"/><rect fill="#282828" height="2" style="stroke:#33FF33;stroke-width:1.0;" width="4" x="295" y="316"/><text fill="#33FF33" font-family="Verdana" font-size="14" lengthAdjust="spacing" textLength="56" x="236" y="339.0752">terminal</text></g><!--SRC=[LOvH3e9034J_ESLw04z4-1XAWwlRhUasQcAukmYOr7xrpNGoFVc5XHEPdsTZhjqTTCFCwIeWqtUNrkcfv67RVYwf2EhKTd-x6T5u26ZwR6n1cU1uHHu3P0smvXv_KMUJN55sQJcUKZiA-roRevHlPla0]--></g></svg>